<svg width="172" height="182" viewBox="0 0 172 182" fill="none" xmlns="http://www.w3.org/2000/svg">
<path opacity="0.5" d="M172 91C172 141.258 133.496 182 86 182C38.5035 182 0 141.258 0 91C0 40.7421 38.5035 0 86 0C133.496 0 172 40.7421 172 91Z" fill="white"/>
<path opacity="0.5" d="M42.4883 67.5156H48.6074C49.9954 67.5156 51.1676 67.7272 52.124 68.1504C53.0889 68.5736 53.821 69.1999 54.3203 70.0293C54.8281 70.8503 55.082 71.8617 55.082 73.0635C55.082 73.9098 54.9085 74.6842 54.5615 75.3867C54.223 76.0807 53.7321 76.6732 53.0889 77.1641C52.4541 77.6465 51.6924 78.0062 50.8037 78.2432L50.1182 78.5098H44.3672L44.3418 76.5166H48.6836C49.5638 76.5166 50.2959 76.3643 50.8799 76.0596C51.4639 75.7464 51.904 75.3275 52.2002 74.8027C52.4964 74.278 52.6445 73.6982 52.6445 73.0635C52.6445 72.3525 52.5049 71.7305 52.2256 71.1973C51.9463 70.6641 51.5062 70.2536 50.9053 69.9658C50.3128 69.6696 49.5469 69.5215 48.6074 69.5215H44.9385V86H42.4883V67.5156ZM53.292 86L48.7979 77.6211L51.3496 77.6084L55.9072 85.8477V86H53.292ZM66.2539 83.6514V76.5801C66.2539 76.0384 66.1439 75.5687 65.9238 75.1709C65.7122 74.7646 65.3906 74.4515 64.959 74.2314C64.5273 74.0114 63.9941 73.9014 63.3594 73.9014C62.7669 73.9014 62.2464 74.0029 61.7979 74.2061C61.3577 74.4092 61.0107 74.6758 60.7568 75.0059C60.5114 75.3359 60.3887 75.6914 60.3887 76.0723H58.04C58.04 75.5814 58.167 75.0947 58.4209 74.6123C58.6748 74.1299 59.0387 73.694 59.5127 73.3047C59.9951 72.9069 60.5706 72.5938 61.2393 72.3652C61.9163 72.1283 62.6696 72.0098 63.499 72.0098C64.4977 72.0098 65.3779 72.179 66.1396 72.5176C66.9098 72.8561 67.5107 73.3682 67.9424 74.0537C68.3825 74.7308 68.6025 75.5814 68.6025 76.6055V83.0039C68.6025 83.4609 68.6406 83.9476 68.7168 84.4639C68.8014 84.9801 68.9242 85.4245 69.085 85.7969V86H66.6348C66.5163 85.7292 66.4232 85.3695 66.3555 84.9209C66.2878 84.4639 66.2539 84.0407 66.2539 83.6514ZM66.6602 77.6719L66.6855 79.3223H64.3115C63.6429 79.3223 63.0462 79.3773 62.5215 79.4873C61.9967 79.5889 61.5566 79.7454 61.2012 79.957C60.8457 80.1686 60.5749 80.4352 60.3887 80.7568C60.2025 81.07 60.1094 81.4382 60.1094 81.8613C60.1094 82.293 60.2067 82.6865 60.4014 83.042C60.596 83.3975 60.888 83.681 61.2773 83.8926C61.6751 84.0957 62.1618 84.1973 62.7373 84.1973C63.4567 84.1973 64.0915 84.0449 64.6416 83.7402C65.1917 83.4355 65.6276 83.0632 65.9492 82.623C66.2793 82.1829 66.457 81.7555 66.4824 81.3408L67.4854 82.4707C67.4261 82.8262 67.2653 83.2197 67.0029 83.6514C66.7406 84.083 66.3893 84.4977 65.9492 84.8955C65.5176 85.2848 65.0013 85.6107 64.4004 85.873C63.8079 86.127 63.1393 86.2539 62.3945 86.2539C61.4635 86.2539 60.6468 86.0719 59.9443 85.708C59.2503 85.3441 58.7087 84.8574 58.3193 84.248C57.9385 83.6302 57.748 82.9404 57.748 82.1787C57.748 81.4424 57.8919 80.7949 58.1797 80.2363C58.4674 79.6693 58.8822 79.1995 59.4238 78.8271C59.9655 78.4463 60.6172 78.1585 61.3789 77.9639C62.1406 77.7692 62.9912 77.6719 63.9307 77.6719H66.6602ZM75.8008 86H73.4521V70.8164C73.4521 69.8262 73.6299 68.9925 73.9854 68.3154C74.3493 67.6299 74.8698 67.1136 75.5469 66.7666C76.224 66.4111 77.028 66.2334 77.959 66.2334C78.2298 66.2334 78.5007 66.2503 78.7715 66.2842C79.0508 66.318 79.3216 66.3688 79.584 66.4365L79.457 68.3535C79.2793 68.3112 79.0762 68.2816 78.8477 68.2646C78.6276 68.2477 78.4076 68.2393 78.1875 68.2393C77.6882 68.2393 77.2565 68.3408 76.8926 68.5439C76.5371 68.7386 76.2663 69.0264 76.0801 69.4072C75.8939 69.7881 75.8008 70.2578 75.8008 70.8164V86ZM78.7207 72.2637V74.0664H71.2812V72.2637H78.7207ZM89.4355 83.6514V76.5801C89.4355 76.0384 89.3255 75.5687 89.1055 75.1709C88.8939 74.7646 88.5723 74.4515 88.1406 74.2314C87.709 74.0114 87.1758 73.9014 86.541 73.9014C85.9486 73.9014 85.4281 74.0029 84.9795 74.2061C84.5394 74.4092 84.1924 74.6758 83.9385 75.0059C83.693 75.3359 83.5703 75.6914 83.5703 76.0723H81.2217C81.2217 75.5814 81.3486 75.0947 81.6025 74.6123C81.8564 74.1299 82.2204 73.694 82.6943 73.3047C83.1768 72.9069 83.7523 72.5938 84.4209 72.3652C85.098 72.1283 85.8512 72.0098 86.6807 72.0098C87.6794 72.0098 88.5596 72.179 89.3213 72.5176C90.0915 72.8561 90.6924 73.3682 91.124 74.0537C91.5641 74.7308 91.7842 75.5814 91.7842 76.6055V83.0039C91.7842 83.4609 91.8223 83.9476 91.8984 84.4639C91.9831 84.9801 92.1058 85.4245 92.2666 85.7969V86H89.8164C89.6979 85.7292 89.6048 85.3695 89.5371 84.9209C89.4694 84.4639 89.4355 84.0407 89.4355 83.6514ZM89.8418 77.6719L89.8672 79.3223H87.4932C86.8245 79.3223 86.2279 79.3773 85.7031 79.4873C85.1784 79.5889 84.7383 79.7454 84.3828 79.957C84.0273 80.1686 83.7565 80.4352 83.5703 80.7568C83.3841 81.07 83.291 81.4382 83.291 81.8613C83.291 82.293 83.3883 82.6865 83.583 83.042C83.7777 83.3975 84.0697 83.681 84.459 83.8926C84.8568 84.0957 85.3434 84.1973 85.9189 84.1973C86.6383 84.1973 87.2731 84.0449 87.8232 83.7402C88.3734 83.4355 88.8092 83.0632 89.1309 82.623C89.4609 82.1829 89.6387 81.7555 89.6641 81.3408L90.667 82.4707C90.6077 82.8262 90.4469 83.2197 90.1846 83.6514C89.9222 84.083 89.571 84.4977 89.1309 84.8955C88.6992 85.2848 88.1829 85.6107 87.582 85.873C86.9896 86.127 86.321 86.2539 85.5762 86.2539C84.6452 86.2539 83.8285 86.0719 83.126 85.708C82.432 85.3441 81.8903 84.8574 81.501 84.248C81.1201 83.6302 80.9297 82.9404 80.9297 82.1787C80.9297 81.4424 81.0736 80.7949 81.3613 80.2363C81.6491 79.6693 82.0638 79.1995 82.6055 78.8271C83.1471 78.4463 83.7988 78.1585 84.5605 77.9639C85.3223 77.7692 86.1729 77.6719 87.1123 77.6719H89.8418ZM103.578 83.6514V76.5801C103.578 76.0384 103.468 75.5687 103.248 75.1709C103.036 74.7646 102.715 74.4515 102.283 74.2314C101.852 74.0114 101.318 73.9014 100.684 73.9014C100.091 73.9014 99.5706 74.0029 99.1221 74.2061C98.682 74.4092 98.335 74.6758 98.0811 75.0059C97.8356 75.3359 97.7129 75.6914 97.7129 76.0723H95.3643C95.3643 75.5814 95.4912 75.0947 95.7451 74.6123C95.999 74.1299 96.363 73.694 96.8369 73.3047C97.3193 72.9069 97.8949 72.5938 98.5635 72.3652C99.2406 72.1283 99.9938 72.0098 100.823 72.0098C101.822 72.0098 102.702 72.179 103.464 72.5176C104.234 72.8561 104.835 73.3682 105.267 74.0537C105.707 74.7308 105.927 75.5814 105.927 76.6055V83.0039C105.927 83.4609 105.965 83.9476 106.041 84.4639C106.126 84.9801 106.248 85.4245 106.409 85.7969V86H103.959C103.84 85.7292 103.747 85.3695 103.68 84.9209C103.612 84.4639 103.578 84.0407 103.578 83.6514ZM103.984 77.6719L104.01 79.3223H101.636C100.967 79.3223 100.37 79.3773 99.8457 79.4873C99.321 79.5889 98.8809 79.7454 98.5254 79.957C98.1699 80.1686 97.8991 80.4352 97.7129 80.7568C97.5267 81.07 97.4336 81.4382 97.4336 81.8613C97.4336 82.293 97.5309 82.6865 97.7256 83.042C97.9202 83.3975 98.2122 83.681 98.6016 83.8926C98.9993 84.0957 99.486 84.1973 100.062 84.1973C100.781 84.1973 101.416 84.0449 101.966 83.7402C102.516 83.4355 102.952 83.0632 103.273 82.623C103.604 82.1829 103.781 81.7555 103.807 81.3408L104.81 82.4707C104.75 82.8262 104.59 83.2197 104.327 83.6514C104.065 84.083 103.714 84.4977 103.273 84.8955C102.842 85.2848 102.326 85.6107 101.725 85.873C101.132 86.127 100.464 86.2539 99.7188 86.2539C98.7878 86.2539 97.971 86.0719 97.2686 85.708C96.5745 85.3441 96.0329 84.8574 95.6436 84.248C95.2627 83.6302 95.0723 82.9404 95.0723 82.1787C95.0723 81.4424 95.2161 80.7949 95.5039 80.2363C95.7917 79.6693 96.2064 79.1995 96.748 78.8271C97.2897 78.4463 97.9414 78.1585 98.7031 77.9639C99.4648 77.7692 100.315 77.6719 101.255 77.6719H103.984ZM115.372 72.2637V74.0664H107.945V72.2637H115.372ZM110.459 68.9248H112.808V82.5977C112.808 83.0632 112.88 83.4144 113.023 83.6514C113.167 83.8883 113.354 84.0449 113.582 84.1211C113.811 84.1973 114.056 84.2354 114.318 84.2354C114.513 84.2354 114.716 84.2184 114.928 84.1846C115.148 84.1423 115.313 84.1084 115.423 84.083L115.436 86C115.249 86.0592 115.004 86.1143 114.699 86.165C114.403 86.2243 114.043 86.2539 113.62 86.2539C113.045 86.2539 112.516 86.1396 112.033 85.9111C111.551 85.6826 111.166 85.3018 110.878 84.7686C110.599 84.2269 110.459 83.499 110.459 82.585V68.9248ZM120.476 66.5V86H118.127V66.5H120.476ZM119.917 78.6113L118.939 78.5732C118.948 77.6338 119.088 76.7663 119.358 75.9707C119.629 75.1667 120.01 74.4684 120.501 73.876C120.992 73.2835 121.576 72.8265 122.253 72.5049C122.938 72.1748 123.696 72.0098 124.525 72.0098C125.202 72.0098 125.812 72.1029 126.354 72.2891C126.895 72.4668 127.356 72.7546 127.737 73.1523C128.127 73.5501 128.423 74.0664 128.626 74.7012C128.829 75.3275 128.931 76.0934 128.931 76.999V86H126.569V76.9736C126.569 76.2542 126.464 75.6787 126.252 75.2471C126.04 74.807 125.731 74.4896 125.325 74.2949C124.919 74.0918 124.42 73.9902 123.827 73.9902C123.243 73.9902 122.71 74.113 122.228 74.3584C121.754 74.6038 121.343 74.9424 120.996 75.374C120.658 75.8057 120.391 76.3008 120.196 76.8594C120.01 77.4095 119.917 77.9935 119.917 78.6113ZM63.3086 105.742L66.0762 103.774C66.6094 103.41 67.0199 103.047 67.3076 102.683C67.6038 102.31 67.752 101.802 67.752 101.159C67.752 100.66 67.5573 100.207 67.168 99.8008C66.7786 99.3861 66.2285 99.1787 65.5176 99.1787C65.0267 99.1787 64.612 99.293 64.2734 99.5215C63.9349 99.75 63.681 100.055 63.5117 100.436C63.3424 100.808 63.2578 101.218 63.2578 101.667C63.2578 102.048 63.3509 102.441 63.5371 102.848C63.7233 103.254 63.9814 103.677 64.3115 104.117C64.6416 104.557 65.0182 105.023 65.4414 105.514L74.1885 116H71.3701L64.1973 107.418C63.5625 106.673 62.9954 105.992 62.4961 105.374C61.9967 104.748 61.6032 104.143 61.3154 103.559C61.0361 102.975 60.8965 102.369 60.8965 101.743C60.8965 100.778 61.0869 99.9658 61.4678 99.3057C61.8571 98.637 62.3988 98.1292 63.0928 97.7822C63.7868 97.4352 64.5993 97.2617 65.5303 97.2617C66.4359 97.2617 67.2145 97.4437 67.8662 97.8076C68.5264 98.1631 69.0342 98.637 69.3896 99.2295C69.7451 99.8135 69.9229 100.457 69.9229 101.159C69.9229 101.752 69.8171 102.285 69.6055 102.759C69.3939 103.224 69.0977 103.652 68.7168 104.041C68.3444 104.43 67.9085 104.811 67.4092 105.184L63.7402 107.913C63.1309 108.362 62.6865 108.789 62.4072 109.195C62.1279 109.602 61.946 109.961 61.8613 110.274C61.7852 110.588 61.7471 110.837 61.7471 111.023C61.7471 111.624 61.8783 112.174 62.1406 112.674C62.403 113.173 62.8008 113.575 63.334 113.88C63.8757 114.176 64.5527 114.324 65.3652 114.324C66.0762 114.324 66.766 114.163 67.4346 113.842C68.1117 113.512 68.7168 113.046 69.25 112.445C69.7832 111.836 70.2064 111.112 70.5195 110.274C70.8411 109.428 71.002 108.493 71.002 107.469H73.1094C73.1094 108.307 73.029 109.098 72.8682 109.843C72.7074 110.588 72.4577 111.282 72.1191 111.925C71.7891 112.56 71.3659 113.139 70.8496 113.664C70.7734 113.74 70.7142 113.829 70.6719 113.931C70.6296 114.032 70.5703 114.121 70.4941 114.197C69.8594 114.883 69.0765 115.399 68.1455 115.746C67.223 116.085 66.2962 116.254 65.3652 116.254C64.138 116.254 63.0758 116.03 62.1787 115.581C61.29 115.132 60.6045 114.515 60.1221 113.728C59.6396 112.94 59.3984 112.039 59.3984 111.023C59.3984 110.245 59.5635 109.559 59.8936 108.967C60.2321 108.374 60.6934 107.82 61.2773 107.304C61.8698 106.787 62.5469 106.267 63.3086 105.742ZM87.582 110.122H90.0195C89.8926 111.29 89.5583 112.335 89.0166 113.258C88.4749 114.18 87.709 114.912 86.7188 115.454C85.7285 115.987 84.4928 116.254 83.0117 116.254C81.9284 116.254 80.9424 116.051 80.0537 115.645C79.1735 115.238 78.416 114.663 77.7812 113.918C77.1465 113.165 76.6556 112.263 76.3086 111.214C75.9701 110.156 75.8008 108.979 75.8008 107.685V105.844C75.8008 104.549 75.9701 103.377 76.3086 102.327C76.6556 101.269 77.1507 100.364 77.7939 99.6104C78.4456 98.8571 79.2285 98.2773 80.1426 97.8711C81.0566 97.4648 82.085 97.2617 83.2275 97.2617C84.624 97.2617 85.8047 97.5241 86.7695 98.0488C87.7344 98.5736 88.4834 99.3014 89.0166 100.232C89.5583 101.155 89.8926 102.226 90.0195 103.444H87.582C87.4635 102.581 87.2435 101.84 86.9219 101.223C86.6003 100.596 86.1432 100.114 85.5508 99.7754C84.9583 99.4368 84.1839 99.2676 83.2275 99.2676C82.4066 99.2676 81.6829 99.4242 81.0566 99.7373C80.4388 100.05 79.9183 100.495 79.4951 101.07C79.0804 101.646 78.7673 102.336 78.5557 103.14C78.3441 103.944 78.2383 104.837 78.2383 105.818V107.685C78.2383 108.59 78.3314 109.441 78.5176 110.236C78.7122 111.032 79.0042 111.73 79.3936 112.331C79.7829 112.932 80.278 113.406 80.8789 113.753C81.4798 114.091 82.1908 114.261 83.0117 114.261C84.0527 114.261 84.8822 114.096 85.5 113.766C86.1178 113.436 86.5833 112.962 86.8965 112.344C87.2181 111.726 87.4466 110.985 87.582 110.122ZM92.3809 109.284V108.992C92.3809 108.002 92.5247 107.084 92.8125 106.237C93.1003 105.382 93.515 104.642 94.0566 104.016C94.5983 103.381 95.2542 102.89 96.0244 102.543C96.7946 102.188 97.6579 102.01 98.6143 102.01C99.5791 102.01 100.447 102.188 101.217 102.543C101.995 102.89 102.656 103.381 103.197 104.016C103.747 104.642 104.166 105.382 104.454 106.237C104.742 107.084 104.886 108.002 104.886 108.992V109.284C104.886 110.274 104.742 111.193 104.454 112.039C104.166 112.885 103.747 113.626 103.197 114.261C102.656 114.887 102 115.378 101.229 115.733C100.468 116.08 99.6045 116.254 98.6396 116.254C97.6748 116.254 96.8073 116.08 96.0371 115.733C95.2669 115.378 94.6068 114.887 94.0566 114.261C93.515 113.626 93.1003 112.885 92.8125 112.039C92.5247 111.193 92.3809 110.274 92.3809 109.284ZM94.7295 108.992V109.284C94.7295 109.97 94.8099 110.617 94.9707 111.227C95.1315 111.827 95.3727 112.361 95.6943 112.826C96.0244 113.292 96.4349 113.66 96.9258 113.931C97.4167 114.193 97.988 114.324 98.6396 114.324C99.2829 114.324 99.8457 114.193 100.328 113.931C100.819 113.66 101.225 113.292 101.547 112.826C101.868 112.361 102.11 111.827 102.271 111.227C102.44 110.617 102.524 109.97 102.524 109.284V108.992C102.524 108.315 102.44 107.676 102.271 107.075C102.11 106.466 101.864 105.928 101.534 105.463C101.213 104.989 100.806 104.617 100.315 104.346C99.833 104.075 99.266 103.939 98.6143 103.939C97.971 103.939 97.404 104.075 96.9131 104.346C96.4307 104.617 96.0244 104.989 95.6943 105.463C95.3727 105.928 95.1315 106.466 94.9707 107.075C94.8099 107.676 94.7295 108.315 94.7295 108.992ZM107.869 114.756C107.869 114.358 107.992 114.024 108.237 113.753C108.491 113.474 108.855 113.334 109.329 113.334C109.803 113.334 110.163 113.474 110.408 113.753C110.662 114.024 110.789 114.358 110.789 114.756C110.789 115.145 110.662 115.475 110.408 115.746C110.163 116.017 109.803 116.152 109.329 116.152C108.855 116.152 108.491 116.017 108.237 115.746C107.992 115.475 107.869 115.145 107.869 114.756Z" fill="#04080F"/>
</svg>
